<svg width="1850" height="940" viewBox="0 0 1850 940" fill="none" xmlns="http://www.w3.org/2000/svg" preserveAspectRatio="none">
<path d="M1790 0H110.402C100.565 0 91.1569 4.02516 84.364 11.1398L9.96217 89.0659C3.56787 95.7631 0 104.667 0 113.926V872C0 891.882 16.1177 908 36 908H1164.02C1173.01 908 1181.68 911.364 1188.32 917.431L1202.68 930.569C1209.32 936.636 1217.99 940 1226.98 940H1814C1833.88 940 1850 923.882 1850 904V326.034C1850 319.155 1848.03 312.421 1844.32 306.628L1831.68 286.872C1827.97 281.079 1826 274.345 1826 267.466V36C1826 16.1177 1809.88 0 1790 0Z" fill="black"/>
</svg>
